<svg width="675" height="675" viewBox="0 0 675 675" fill="none" xmlns="http://www.w3.org/2000/svg" style="background-color: black;">
    <title>Mandala</title>
    <defs>
        <path d="M337.5,337.5 m-320,0 a320,320 0 1,1 640,0 a320,320 0 1,1 -640,0" id="circle1"></path>
        <path d="M337.5,337.5 m-280,0 a280,280 0 1,1 560,0 a280,280 0 1,1 -560,0" id="circle2"></path>
        <path d="M337.5,337.5 m-240,0 a240,240 0 1,1 480,0 a240,240 0 1,1 -480,0" id="circle3"></path>
        <path d="M337.5,337.5 m-200,0 a200,200 0 1,1 400,0 a200,200 0 1,1 -400,0" id="circle4"></path>
        <path d="M337.5,337.5 m-160,0 a160,160 0 1,1 320,0 a160,160 0 1,1 -320,0" id="circle5"></path>
    </defs>
    <text dy="70" textLength="2010" fill="white">
        <textPath textLength="2010" href="#circle1">
            &nbsp;&nbsp;&nbsp;/<tspan>/</tspan>/<tspan>/</tspan>/<tspan>/</tspan>/<tspan>/</tspan>/<tspan>/</tspan>/<tspan>/</tspan>
            &nbsp;&nbsp;&nbsp;/<tspan>/</tspan>/<tspan>/</tspan>/<tspan>/</tspan>/<tspan>/</tspan>/<tspan>/</tspan>/<tspan>/</tspan>
            &nbsp;&nbsp;&nbsp;/<tspan>/</tspan>/<tspan>/</tspan>/<tspan>/</tspan>/<tspan>/</tspan>/<tspan>/</tspan>/<tspan>/</tspan>
            &nbsp;&nbsp;&nbsp;/<tspan>/</tspan>/<tspan>/</tspan>/<tspan>/</tspan>/<tspan>/</tspan>/<tspan>/</tspan>/<tspan>/</tspan>
            &nbsp;&nbsp;&nbsp;/<tspan>/</tspan>/<tspan>/</tspan>/<tspan>/</tspan>/<tspan>/</tspan>/<tspan>/</tspan>/<tspan>/</tspan>
        </textPath>
    </text>
    <text dy="70" textLength="1760" fill="white">
        <textPath textLength="1760" href="#circle2">
            &nbsp;&nbsp;+<tspan>+</tspan>+<tspan>+</tspan>+<tspan>+</tspan>
            &nbsp;&nbsp;+<tspan>+</tspan>+<tspan>+</tspan>+<tspan>+</tspan>
            &nbsp;&nbsp;+<tspan>+</tspan>+<tspan>+</tspan>+<tspan>+</tspan>
            &nbsp;&nbsp;+<tspan>+</tspan>+<tspan>+</tspan>+<tspan>+</tspan>
        </textPath>
    </text>
    <text dy="70" textLength="1507" fill="white">
        <textPath textLength="1507" href="#circle3">
            <tspan>{</tspan>{<tspan>{</tspan>{&nbsp;<tspan>}</tspan>}<tspan>}</tspan>}
            &nbsp;&nbsp;<tspan>{</tspan>{<tspan>{</tspan>{&nbsp;<tspan>}</tspan>}<tspan>}</tspan>}
            &nbsp;&nbsp;<tspan>{</tspan>{<tspan>{</tspan>{&nbsp;<tspan>}</tspan>}<tspan>}</tspan>}
        </textPath>
    </text>
    <text dy="70" textLength="1257" fill="white">
        <textPath textLength="1257" href="#circle4">
            &nbsp;&nbsp;&nbsp;../../ &nbsp;&nbsp;&nbsp;../../ &nbsp;&nbsp;&nbsp;../../
            &nbsp;&nbsp;&nbsp;../../ &nbsp;&nbsp;&nbsp;../../ &nbsp;&nbsp;&nbsp;../../
        </textPath>
    </text>
    <text dy="70" textLength="1005" fill="white">
        <textPath textLength="1005" href="#circle5">
            <tspan>&lt;&gt;</tspan>&lt;/&gt;<tspan>&lt;&gt;</tspan>&lt;/&gt;
            <tspan>&lt;&gt;</tspan>&lt;/&gt;<tspan>&lt;&gt;</tspan>&lt;/&gt;
            <tspan>&lt;&gt;</tspan>&lt;/&gt;<tspan>&lt;&gt;</tspan>&lt;/&gt;
        </textPath>
    </text>
</svg>
